#!OML:ASF H:\LiuWeirdWalks\Patient Classification 1\Patient 1\Session 1\male.ASF
:FULLY-SPECIFIED
:DEGREES
180
root 2.03573 16.7757 -24.5702 16.0743 -0.384801 -2.44856
lowerback 17.8765 2.25862 -5.92823
upperback -1.75255 1.91896 1.78741
thorax -12.3324 1.37976 4.83263
lowerneck -25.6939 1.70021 6.33213
upperneck 12.3018 0.715241 -3.30382
head 7.98194 0.299574 -2.03403
rclavicle -1.4356e-014 2.04003e-014
rhumerus -43.3914 1.4351 -71.1174
rradius 34.4077
rwrist -5.16279
rhand -15.4444 -0.562315
rfingers 7.12502
rthumb 10.7361 -30.268
lclavicle -1.4356e-014 2.04003e-014
lhumerus -31.4776 -10.1137 78.1768
lradius 47.358
lwrist 10.7371
lhand -18.4325 -7.16932
lfingers 7.12502
lthumb 7.85293 22.6648
rfemur -39.0852 -16.1417 8.84207
rtibia 110.57
rfoot 13.1599 2.6019
rtoes -6.75402
lfemur -14.6444 -2.35546 -24.1139
ltibia 43.0453
lfoot -21.2591 19.9001
ltoes -24.6548
181
root 2.04829 16.8969 -24.336 15.5457 -0.706157 -2.65392
lowerback 17.4153 2.26759 -5.71509
upperback -1.83887 2.01197 1.85182
thorax -12.168 1.40963 4.76044
lowerneck -25.522 1.74447 6.40933
upperneck 12.7966 0.791291 -3.44063
head 8.1284 0.331667 -2.08648
rclavicle 2.11209e-016 -5.66536e-015
rhumerus -44.903 1.9378 -70.9735
rradius 34.9548
rwrist -5.11893
rhand -15.1634 -0.470716
rfingers 7.12502
rthumb 11.0072 -30.1621
lclavicle 2.11209e-016 -5.66536e-015
lhumerus -32.3185 -10.4531 77.9986
lradius 47.8059
lwrist 10.7329
lhand -18.6121 -7.27111
lfingers 7.12502
lthumb 7.67956 22.5694
rfemur -38.9788 -16.5218 8.18683
rtibia 111.705
rfoot 13.2849 3.70055
rtoes -7.27886
lfemur -11.8468 -2.60178 -24.1019
ltibia 40.0516
lfoot -19.3289 19.5095
ltoes -25.1409
182
root 2.0618 17.0278 -24.094 15.0096 -1.03291 -2.90181
lowerback 16.8952 2.28069 -5.44345
upperback -1.90474 2.12674 1.94106
thorax -11.9461 1.44516 4.6782
lowerneck -25.3222 1.77446 6.46635
upperneck 13.2627 0.866539 -3.62085
head 8.26102 0.357238 -2.15077
rclavicle 5.13113e-015 5.15287e-015
rhumerus -46.369 2.37678 -70.8084
rradius 35.4665
rwrist -5.24534
rhand -14.8908 -0.400403
rfingers 7.12502
rthumb 11.2701 -30.0776
lclavicle 5.13113e-015 5.15287e-015
lhumerus -33.1512 -10.7177 77.846
lradius 48.1791
lwrist 10.6201
lhand -18.6727 -7.40919
lfingers 7.12502
lthumb 7.62105 22.4335
rfemur -38.7926 -16.8274 7.57057
rtibia 112.737
rfoot 13.3797 4.7767
rtoes -7.75347
lfemur -9.05472 -2.85681 -24.0672
ltibia 37.0588
lfoot -17.0661 18.971
ltoes -25.5944
183
root 2.07577 17.1679 -23.8441 14.4433 -1.35702 -3.17256
lowerback 16.3355 2.29757 -5.12768
upperback -1.93733 2.25605 2.04732
thorax -11.6625 1.48359 4.58769
lowerneck -25.1223 1.81643 6.54465
upperneck 13.7004 0.962845 -3.85638
head 8.38579 0.387212 -2.23468
rclavicle 2.97432e-014 1.28465e-014
rhumerus -47.7646 2.74231 -70.6231
rradius 35.8966
rwrist -5.54981
rhand -14.6743 -0.357907
rfingers 7.12502
rthumb 11.4789 -30.0236
lclavicle 2.97432e-014 1.28465e-014
lhumerus -33.9673 -10.8986 77.7119
lradius 48.4892
lwrist 10.4577
lhand -18.6059 -7.5362
lfingers 7.12502
lthumb 7.68556 22.3041
rfemur -38.4693 -17.0467 6.97871
rtibia 113.637
rfoot 13.4244 5.78525
rtoes -8.1723
lfemur -6.29402 -3.11673 -24.0301
ltibia 34.1507
lfoot -14.4986 18.2932
ltoes -25.8862
184
root 2.08919 17.3173 -23.5875 13.834 -1.64875 -3.45212
lowerback 15.7591 2.3101 -4.78763
upperback -1.9284 2.38228 2.17089
thorax -11.3206 1.5183 4.50537
lowerneck -24.9005 1.84674 6.58832
upperneck 14.1168 1.05676 -4.08347
head 8.49967 0.414764 -2.3106
rclavicle 7.54139e-015 9.21864e-015
rhumerus -49.0517 3.02858 -70.4155
rradius 36.1731
rwrist -5.93573
rhand -14.5698 -0.322185
rfingers 7.12502
rthumb 11.5797 -29.9823
lclavicle 7.54139e-015 9.21864e-015
lhumerus -34.75 -10.9752 77.586
lradius 48.7259
lwrist 10.235
lhand -18.4259 -7.73369
lfingers 7.12502
lthumb 7.85926 22.1002
rfemur -37.9583 -17.1783 6.42198
rtibia 114.378
rfoot 13.4021 6.65832
rtoes -8.4413
lfemur -3.62565 -3.40404 -23.9958
ltibia 31.4309
lfoot -11.6964 17.3263
ltoes -25.9287
185
root 2.1006 17.4754 -23.327 13.1918 -1.88147 -3.70443
lowerback 15.2119 2.3098 -4.46348
upperback -1.89549 2.48219 2.30112
thorax -10.9664 1.54217 4.44738
lowerneck -24.6492 1.87917 6.6331
upperneck 14.4979 1.15531 -4.30576
head 8.59705 0.444776 -2.38429
rclavicle 3.66012e-014 2.35063e-014
rhumerus -50.216 3.22733 -70.1856
rradius 36.2532
rwrist -6.33301
rhand -14.5614 -0.295032
rfingers 7.12502
rthumb 11.5877 -29.9547
lclavicle 3.66012e-014 2.35063e-014
lhumerus -35.5207 -10.9331 77.4554
lradius 48.9
lwrist 9.99458
lhand -18.1818 -7.96011
lfingers 7.12502
lthumb 8.09483 21.8649
rfemur -37.2567 -17.2165 5.90014
rtibia 114.942
rfoot 13.3527 7.31631
rtoes -8.62303
lfemur -1.17947 -3.69182 -23.9838
ltibia 29.0262
lfoot -8.67489 15.7776
ltoes -25.7356
186
root 2.10947 17.6412 -23.0638 12.5215 -2.05006 -3.91185
lowerback 14.7094 2.29396 -4.17808
upperback -1.84128 2.54697 2.42926
thorax -10.6125 1.55218 4.41825
lowerneck -24.4139 1.91702 6.70964
upperneck 14.8695 1.252 -4.53482
head 8.69417 0.474624 -2.466
rclavicle 4.40557e-014 1.11319e-014
rhumerus -51.2455 3.3228 -69.9256
rradius 36.1385
rwrist -6.69751
rhand -14.5896 -0.27974
rfingers 7.12502
rthumb 11.5605 -29.9409
lclavicle 4.40557e-014 1.11319e-014
lhumerus -36.2781 -10.7731 77.3013
lradius 49.022
lwrist 9.74118
lhand -17.8991 -8.22305
lfingers 7.12502
lthumb 8.36767 21.5912
rfemur -36.3703 -17.1553 5.41657
rtibia 115.322
rfoot 13.2873 7.76036
rtoes -8.71334
lfemur 0.947239 -3.9463 -23.999
ltibia 27.07
lfoot -5.43967 13.5696
ltoes -25.3668
187
root 2.11499 17.8129 -22.8004 11.8456 -2.12863 -4.06356
lowerback 14.2658 2.2566 -3.93912
upperback -1.78314 2.56716 2.54616
thorax -10.2859 1.5445 4.41335
lowerneck -24.1605 1.93809 6.77457
upperneck 15.2182 1.32695 -4.73905
head 8.77898 0.496284 -2.54034
rclavicle 3.26255e-014 2.98177e-015
rhumerus -52.1517 3.29636 -69.6282
rradius 35.851
rwrist -6.98658
rhand -14.5967 -0.31264
rfingers 7.12502
rthumb 11.5537 -29.9742
lclavicle 3.26255e-014 2.98177e-015
lhumerus -37.0283 -10.5232 77.1174
lradius 49.1065
lwrist 9.53993
lhand -17.6109 -8.5203
lfingers 7.12502
lthumb 8.64582 21.2827
rfemur -35.3214 -17.0168 4.98202
rtibia 115.524
rfoot 13.2468 7.98418
rtoes -8.73946
lfemur 2.63961 -4.13813 -24.0248
ltibia 25.6908
lfoot -1.92313 10.7207
ltoes -24.9293
188
root 2.11772 17.988 -22.5388 11.1895 -2.14513 -4.16364
lowerback 13.878 2.20495 -3.74954
upperback -1.73254 2.55328 2.64867
thorax -9.99875 1.52425 4.42763
lowerneck -23.9478 1.94577 6.85445
upperneck 15.5983 1.37882 -4.94793
head 8.88027 0.507295 -2.62294
rclavicle 1.84124e-014 -1.98785e-016
rhumerus -52.9488 3.15289 -69.2833
rradius 35.4262
rwrist -7.14233
rhand -14.5512 -0.379204
rfingers 7.12502
rthumb 11.5975 -30.0383
lclavicle 1.84124e-014 -1.98785e-016
lhumerus -37.7849 -10.1975 76.8967
lradius 49.1775
lwrist 9.40339
lhand -17.3452 -8.83817
lfingers 7.12502
lthumb 8.90227 20.954
rfemur -34.1828 -16.7804 4.61167
rtibia 115.565
rfoot 13.2686 8.01876
rtoes -8.7254
lfemur 3.82356 -4.19543 -24.0476
ltibia 24.9752
lfoot 1.96753 7.53326
ltoes -24.4355
189
root 2.11737 18.1641 -22.2799 10.565 -2.07992 -4.22669
lowerback 13.5379 2.13464 -3.58724
upperback -1.6887 2.50494 2.7378
thorax -9.74419 1.48953 4.44932
lowerneck -23.7883 1.93826 6.93346
upperneck 16.006 1.40884 -5.15793
head 8.99888 0.507463 -2.71
rclavicle -6.73383e-015 -2.48481e-015
rhumerus -53.6501 2.8883 -68.8875
rradius 34.9097
rwrist -7.15487
rhand -14.4486 -0.507904
rfingers 7.12502
rthumb 11.6965 -30.1614
lclavicle -6.73383e-015 -2.48481e-015
lhumerus -38.526 -9.81489 76.6344
lradius 49.2394
lwrist 9.33558
lhand -17.0882 -9.10996
lfingers 7.12502
lthumb 9.15028 20.6715
rfemur -32.9753 -16.4863 4.32895
rtibia 115.463
rfoot 13.3542 7.92231
rtoes -8.69175
lfemur 4.4808 -4.11646 -24.0326
ltibia 24.965
lfoot 6.15717 4.50722
ltoes -23.9507
190
root 2.11414 18.3386 -22.0247 9.97871 -1.93302 -4.29434
lowerback 13.2503 2.05114 -3.41384
upperback -1.6643 2.4376 2.82381
thorax -9.53917 1.44643 4.46381
lowerneck -23.6001 1.88046 6.95465
upperneck 16.3987 1.38681 -5.34123
head 9.10339 0.482763 -2.786
rclavicle -1.3418e-014 2.18663e-015
rhumerus -54.298 2.50677 -68.4296
rradius 34.3305
rwrist -7.03374
rhand -14.2935 -0.66914
rfingers 7.12502
rthumb 11.8461 -30.3141
lclavicle -1.3418e-014 2.18663e-015
lhumerus -39.2595 -9.40528 76.3365
lradius 49.2951
lwrist 9.29834
lhand -16.8144 -9.32886
lfingers 7.12502
lthumb 9.41446 20.4409
rfemur -31.7176 -16.1441 4.18204
rtibia 115.231
rfoot 13.51 7.70238
rtoes -8.59377
lfemur 4.6444 -3.9092 -23.9345
ltibia 25.632
lfoot 10.2128 2.08008
ltoes -23.3943
191
root 2.10872 18.5088 -21.7739 9.43206 -1.71765 -4.39396
lowerback 13.0025 1.96122 -3.19796
upperback -1.64747 2.36653 2.91369
thorax -9.3638 1.40018 4.45759
lowerneck -23.4267 1.78682 6.92295
upperneck 16.7767 1.32928 -5.50773
head 9.20234 0.439518 -2.8529
rclavicle 7.45443e-015 -4.37326e-015
rhumerus -54.8934 2.01899 -67.9095
rradius 33.7203
rwrist -6.81772
rhand -14.1164 -0.854876
rfingers 7.12502
rthumb 12.0169 -30.4899
lclavicle 7.45443e-015 -4.37326e-015
lhumerus -39.9563 -8.98816 76.0106
lradius 49.3481
lwrist 9.32925
lhand -16.5117 -9.41695
lfingers 7.12502
lthumb 9.70646 20.3394
rfemur -30.4295 -15.761 4.19015
rtibia 114.884
rfoot 13.7409 7.38732
rtoes -8.46057
lfemur 4.37334 -3.57501 -23.7336
ltibia 26.9024
lfoot 13.5159 0.403873
ltoes -22.7731
192
root 2.1019 18.6725 -21.5272 8.90582 -1.43357 -4.56363
lowerback 12.8043 1.86784 -2.89992
upperback -1.63058 2.30295 3.0206
thorax -9.21544 1.35437 4.41986
lowerneck -23.2563 1.66242 6.82839
upperneck 17.1098 1.24296 -5.64394
head 9.28341 0.381558 -2.90264
rclavicle 0 8.34896e-015
rhumerus -55.4471 1.43893 -67.3226
rradius 33.084
rwrist -6.54497
rhand -13.9461 -1.02279
rfingers 7.12502
rthumb 12.1811 -30.6481
lclavicle 0 8.34896e-015
lhumerus -40.5982 -8.57836 75.6725
lradius 49.3794
lwrist 9.40902
lhand -16.2109 -9.4089
lfingers 7.12502
lthumb 9.99667 20.3337
rfemur -29.0835 -15.3478 4.37536
rtibia 114.428
rfoot 14.0074 7.00223
rtoes -8.27077
lfemur 3.77169 -3.17092 -23.4096
ltibia 28.6583
lfoot 15.4838 -0.64981
ltoes -22.1162
193
root 2.09395 18.8276 -21.2852 8.40307 -1.08631 -4.81717
lowerback 12.6569 1.77407 -2.50966
upperback -1.61159 2.25286 3.14941
thorax -9.09316 1.3116 4.34909
lowerneck -23.1054 1.52152 6.68451
upperneck 17.4158 1.14108 -5.74727
head 9.35674 0.316118 -2.93479
rclavicle 2.2413e-014 1.55052e-014
rhumerus -55.9572 0.779174 -66.6773
rradius 32.4289
rwrist -6.26264
rhand -13.7933 -1.17884
rfingers 7.12502
rthumb 12.3284 -30.7954
lclavicle 2.2413e-014 1.55052e-014
lhumerus -41.182 -8.17822 75.3314
lradius 49.3952
lwrist 9.55729
lhand -15.9342 -9.29837
lfingers 7.12502
lthumb 10.2637 20.4312
rfemur -27.6882 -14.9066 4.753
rtibia 113.865
rfoot 14.3042 6.53891
rtoes -8.06521
lfemur 2.89241 -2.7131 -22.9606
ltibia 30.7558
lfoot 16.1358 -1.3322
ltoes -21.5054
